<?xml version="1.0" standalone="no"?>
<!DOCTYPE svg PUBLIC "-//W3C//DTD SVG 20010904//EN"
 "http://www.w3.org/TR/2001/REC-SVG-20010904/DTD/svg10.dtd">
<svg version="1.0" xmlns="http://www.w3.org/2000/svg"
 width="1024.000000pt" height="1024.000000pt" viewBox="0 0 1024.000000 1024.000000"
 preserveAspectRatio="xMidYMid meet">

<g transform="translate(0.000000,1024.000000) scale(0.100000,-0.100000)"
fill="#000000" stroke="none">
<path d="M0 5120 l0 -5120 5120 0 5120 0 0 5120 0 5120 -5120 0 -5120 0 0
-5120z m5900 4546 c386 -31 612 -54 800 -81 58 -8 220 -31 360 -51 560 -78
1068 -179 1241 -248 278 -109 518 -352 639 -646 81 -195 210 -603 300 -945 17
-66 40 -151 50 -190 95 -362 218 -1010 260 -1373 50 -428 51 -454 57 -927 6
-528 -1 -704 -47 -1135 -83 -770 -222 -1457 -435 -2135 -133 -426 -183 -550
-279 -694 -137 -205 -320 -346 -556 -426 -183 -62 -1149 -207 -1697 -254 -68
-6 -176 -16 -240 -21 -517 -45 -1225 -62 -1728 -41 -595 25 -1414 102 -1975
187 -52 7 -176 25 -275 40 -304 43 -430 76 -577 150 -202 101 -377 275 -478
474 -120 235 -334 935 -458 1500 -73 331 -83 380 -122 629 -92 577 -120 938
-120 1548 0 550 18 814 96 1368 86 619 268 1374 479 1995 114 334 200 488 364
651 106 106 181 158 318 225 116 56 214 82 548 143 741 137 1521 232 2250 275
159 9 1052 -4 1225 -18z"/>
<path d="M4990 7543 c-102 -8 -300 -47 -425 -83 -219 -65 -452 -177 -636 -307
-82 -59 -243 -198 -302 -261 l-29 -30 66 -67 66 -68 22 29 c63 79 236 227 362
309 243 158 503 252 791 286 55 7 107 17 115 24 42 33 91 22 111 -26 9 -24 9
-33 -5 -54 -22 -33 -56 -40 -97 -20 -25 14 -46 16 -99 11 -155 -16 -392 -94
-545 -181 -193 -110 -405 -287 -515 -431 l-46 -59 86 -82 87 -83 48 73 c112
165 350 365 536 451 308 141 647 159 951 50 299 -108 517 -285 702 -571 1 -1
26 10 56 25 121 60 256 36 348 -62 100 -106 108 -246 20 -374 l-29 -43 14 -67
c41 -184 46 -466 11 -654 -39 -211 -156 -488 -273 -646 -81 -109 -196 -228
-287 -298 -41 -31 -74 -59 -74 -61 0 -3 15 -23 34 -45 64 -74 80 -121 81 -233
0 -88 -3 -107 -26 -156 l-27 -57 41 -5 c37 -5 48 0 116 45 194 130 305 227
440 383 187 217 309 443 395 733 70 237 90 395 83 642 -9 300 -79 584 -207
840 -39 79 -153 250 -228 345 -134 169 -373 375 -568 491 -350 208 -789 316
-1164 287z m456 -218 c15 -23 15 -27 0 -50 -11 -17 -26 -25 -44 -25 -35 0 -52
16 -52 50 0 34 17 50 52 50 18 0 33 -8 44 -25z m299 -71 c22 -23 15 -66 -13
-80 -53 -26 -100 22 -68 71 19 29 56 33 81 9z m276 -104 c30 -17 26 -77 -6
-92 -41 -18 -75 3 -75 46 0 48 37 69 81 46z m860 -1017 c11 -15 11 -16 -1 -5
-20 17 -50 15 -67 -5 -13 -16 -13 -16 -3 5 13 27 52 29 71 5z m31 -363 c13 -5
17 -9 10 -9 -26 -2 -52 20 -51 42 l0 22 9 -23 c5 -12 20 -27 32 -32z"/>
<path d="M4940 6935 c-81 -15 -259 -74 -325 -107 -106 -54 -257 -177 -328
-267 -46 -58 -117 -170 -117 -183 0 -5 167 -8 371 -8 228 0 368 -4 364 -9 -3
-6 -30 -24 -59 -40 l-53 -31 -464 0 -463 0 -227 233 -226 232 -242 3 c-256 4
-287 0 -316 -42 -17 -24 -20 -79 -5 -107 24 -43 57 -49 274 -49 l204 0 209
-211 c114 -116 217 -216 228 -222 11 -7 51 -14 89 -17 l70 -5 48 -200 c81
-338 248 -1044 274 -1160 29 -124 40 -147 87 -172 30 -17 87 -18 807 -21 553
-2 782 1 802 9 14 6 34 27 43 46 23 47 10 90 -34 120 l-34 23 -737 0 -736 0
-37 149 c-20 83 -37 155 -37 160 0 8 238 11 786 11 875 0 832 -3 871 68 12 20
86 190 166 377 80 187 182 421 226 520 45 99 81 190 81 202 0 12 -12 31 -26
42 -25 19 -40 21 -199 21 l-172 0 -17 45 c-50 131 -221 324 -377 428 -100 66
-193 108 -321 143 -118 32 -332 41 -448 19z m220 -47 c0 -27 -40 -450 -44
-463 -1 -5 -8 46 -15 115 -6 69 -19 176 -27 238 -8 61 -12 117 -9 122 3 6 26
10 51 10 38 0 44 -3 44 -22z m-465 -250 c43 -79 91 -164 106 -191 16 -26 29
-50 29 -53 0 -7 -202 204 -259 269 -22 27 -41 51 -41 55 1 7 71 61 81 62 3 0
41 -64 84 -142z m959 112 l48 -31 -24 -29 c-12 -16 -68 -77 -123 -137 -55 -59
-117 -128 -139 -153 -33 -39 -23 -15 70 167 60 117 111 213 115 213 3 0 27
-14 53 -30z m-363 -507 c80 -39 150 -111 187 -191 24 -50 27 -69 26 -157 0
-87 -3 -108 -27 -158 -36 -80 -81 -133 -144 -173 -237 -152 -552 -12 -604 269
-21 119 30 257 131 350 84 78 138 97 265 94 91 -2 107 -5 166 -34z m-766 -133
c55 -3 82 -8 60 -9 -191 -9 -388 -20 -390 -23 -3 -2 28 -153 50 -246 l6 -23
157 7 c86 4 155 4 152 1 -3 -3 -66 -23 -140 -43 -74 -20 -138 -38 -141 -40 -8
-4 25 -162 70 -339 l29 -115 -32 0 c-31 0 -31 1 -52 88 -12 48 -53 218 -92
378 -39 160 -74 310 -78 333 l-7 41 154 -1 c85 -1 199 -5 254 -9z m1709 -27
c-9 -21 -36 -87 -61 -148 -70 -169 -81 -188 -106 -182 -12 3 -116 23 -231 44
l-209 38 214 5 c118 3 205 7 194 8 -31 4 -378 31 -398 32 -15 0 -18 7 -15 33
3 31 5 33 103 64 55 18 123 39 150 47 l50 15 -45 -6 c-25 -3 -88 -16 -140 -30
-114 -30 -122 -31 -127 -17 -4 13 105 63 226 105 81 27 96 29 249 29 l162 0
-16 -37z m-1414 -620 c0 -5 -17 -45 -37 -91 -40 -88 -51 -96 -113 -90 l-34 3
77 93 c67 79 107 111 107 85z m693 -81 c48 -48 87 -91 87 -95 0 -4 -21 -7 -47
-7 l-48 0 -45 86 c-25 47 -46 90 -48 95 -10 25 22 1 101 -79z"/>
<path d="M5055 6046 c-114 -50 -128 -204 -26 -282 37 -28 139 -27 177 2 44 32
66 68 71 117 13 115 -115 210 -222 163z"/>
<path d="M3225 6318 c-2 -7 -20 -53 -38 -103 -67 -177 -105 -382 -114 -610
-20 -556 173 -1068 560 -1481 83 -90 222 -205 342 -284 89 -58 105 -66 141
-62 l40 4 -31 61 c-26 54 -30 72 -30 147 0 74 4 93 31 150 17 36 45 79 62 97
18 17 32 35 32 40 0 4 -26 26 -58 48 -101 71 -262 242 -345 366 -239 359 -318
759 -241 1218 l16 93 -38 42 c-152 164 -281 286 -302 286 -12 0 -25 -6 -27
-12z m195 -169 c27 -50 -21 -95 -76 -70 -27 12 -34 57 -12 79 20 20 76 15 88
-9z m-72 -305 c12 -8 22 -26 22 -39 0 -25 -33 -55 -62 -55 -22 0 -48 27 -48
51 0 21 33 59 53 59 7 0 23 -7 35 -16z m-3 -334 c40 -45 -20 -109 -71 -75 -28
18 -30 41 -8 73 19 27 55 28 79 2z m27 -297 c24 -22 24 -69 -1 -83 -31 -16
-59 -12 -75 12 -21 30 -20 44 4 68 24 24 47 25 72 3z m79 -273 c22 -12 26 -59
7 -78 -21 -21 -66 -14 -83 12 -22 33 -5 76 30 76 15 0 35 -5 46 -10z m137
-252 c21 -21 14 -66 -13 -84 -23 -15 -27 -15 -50 0 -29 19 -33 56 -9 80 18 19
55 21 72 4z m159 -290 c-3 -7 -5 -2 -5 12 0 14 2 19 5 13 2 -7 2 -19 0 -25z"/>
<path d="M4492 4250 c-95 -48 -142 -126 -142 -235 0 -104 44 -182 131 -230 47
-26 64 -30 129 -30 85 0 133 20 188 76 44 45 65 95 70 166 10 143 -104 269
-253 280 -53 4 -68 1 -123 -27z m148 -175 c36 -19 49 -59 29 -94 -21 -37 -90
-42 -113 -9 -23 32 -20 65 9 93 28 29 36 30 75 10z"/>
<path d="M5545 4265 c-100 -37 -165 -126 -173 -236 -4 -63 -2 -75 27 -134 35
-70 82 -111 155 -135 59 -19 156 -8 211 24 76 45 135 145 135 229 0 85 -72
197 -153 239 -53 27 -148 33 -202 13z m129 -196 c54 -42 25 -119 -45 -119 -66
0 -92 68 -44 115 30 30 54 31 89 4z"/>
<path d="M4914 3672 c-28 -16 -69 -43 -90 -60 l-40 -32 -1111 -2 c-1076 -3
-1112 -4 -1132 -22 -12 -11 -21 -26 -21 -36 0 -9 40 -105 90 -213 l89 -198
-89 -193 c-50 -106 -90 -202 -90 -214 0 -11 12 -30 26 -41 l27 -21 2547 2
c2490 3 2548 3 2569 22 12 11 21 29 21 42 0 12 -39 105 -86 206 -102 214 -102
176 6 408 87 188 92 209 55 238 l-28 22 -1100 0 -1100 0 -51 39 c-103 77 -117
81 -288 81 -149 0 -154 -1 -204 -28z m1454 -617 c54 -120 72 -149 84 -137 4 4
53 105 109 223 55 118 104 218 109 223 4 4 61 -99 126 -230 65 -132 120 -242
122 -246 2 -5 -21 -8 -52 -8 l-56 0 -25 50 -25 50 -84 0 -84 0 -21 -50 -22
-50 -104 0 -105 0 -23 48 -22 47 -84 0 -85 0 -26 -45 c-25 -43 -28 -45 -78
-48 -29 -2 -52 -1 -52 2 0 2 31 67 69 143 38 76 92 187 120 246 l52 109 55
-114 c31 -62 76 -158 102 -213z m-3201 305 c70 -16 135 -67 168 -134 65 -134
-5 -297 -144 -336 -20 -5 -82 -10 -138 -10 l-103 0 0 245 0 245 85 0 c46 0
106 -5 132 -10z m369 -12 c10 -33 115 -261 125 -272 5 -5 40 57 81 140 l73
149 53 3 c29 2 52 -1 52 -7 0 -18 -245 -495 -256 -498 -6 -2 -32 43 -59 99
-27 57 -81 172 -121 256 l-73 152 59 0 c52 0 59 -3 66 -22z m697 2 c143 -54
207 -207 141 -338 -49 -98 -121 -132 -280 -132 l-104 0 0 245 0 245 95 0 c70
0 108 -5 148 -20z m695 -3 c66 -36 91 -120 54 -182 l-18 -30 33 -31 c28 -26
33 -38 33 -75 0 -59 -30 -105 -83 -129 -34 -16 -65 -20 -164 -20 l-123 0 0
229 c0 126 3 237 6 246 6 15 21 17 118 13 81 -3 120 -9 144 -21z m422 -64 c55
-113 166 -355 175 -382 6 -19 2 -21 -47 -21 l-53 0 -18 44 -18 45 -81 3 c-44
2 -84 1 -88 -2 -4 -3 -17 -24 -29 -47 -21 -43 -22 -43 -75 -43 l-55 0 73 153
c40 83 92 194 116 245 24 50 46 92 50 92 4 0 26 -39 50 -87z m610 77 c0 -6
-54 -97 -120 -201 -66 -105 -120 -192 -120 -195 0 -2 47 -4 105 -4 93 0 105
-2 105 -17 0 -10 3 -28 6 -40 l6 -23 -191 0 c-129 0 -191 3 -191 11 0 6 13 29
28 52 54 79 204 328 200 332 -2 2 -45 7 -96 11 l-92 7 0 32 c0 17 3 35 7 38
11 12 353 8 353 -3z m1266 -18 c60 -31 84 -75 84 -152 0 -58 -2 -64 -36 -98
l-36 -36 32 -61 c18 -33 42 -72 52 -87 l19 -28 -58 0 -58 0 -45 80 -45 80 -42
0 -43 0 0 -80 0 -80 -45 0 -45 0 0 246 0 246 113 -4 c90 -3 120 -8 153 -26z"/>
<path d="M6182 3118 c-12 -28 -20 -53 -18 -55 2 -2 24 -3 49 -1 l45 3 -22 52
c-11 29 -23 53 -26 53 -3 0 -15 -24 -28 -52z"/>
<path d="M6650 3114 c-11 -25 -20 -48 -20 -50 0 -2 20 -4 45 -4 25 0 45 2 45
4 0 11 -40 96 -45 96 -3 0 -15 -21 -25 -46z"/>
<path d="M3068 3272 c-16 -3 -18 -19 -18 -153 l0 -149 48 0 c152 0 219 165
108 269 -25 24 -98 41 -138 33z"/>
<path d="M4089 3274 c-1 -5 -2 -75 -2 -156 l-2 -148 50 0 c165 0 227 184 94
282 -26 20 -138 37 -140 22z"/>
<path d="M4760 3225 l0 -55 60 0 c54 0 62 3 71 24 9 18 8 31 -2 52 -13 26 -20
29 -72 32 l-57 3 0 -56z"/>
<path d="M4760 3025 l0 -55 68 0 c74 0 102 16 102 57 0 37 -31 53 -103 53
l-67 0 0 -55z"/>
<path d="M5276 3117 c-9 -23 -16 -46 -16 -50 0 -4 18 -7 41 -7 39 0 41 1 35
25 -11 44 -25 75 -34 75 -5 0 -17 -19 -26 -43z"/>
<path d="M7060 3206 l0 -73 38 -7 c60 -10 72 -7 97 19 33 33 32 70 -4 106 -25
24 -37 29 -80 29 l-51 0 0 -74z"/>
</g>
</svg>
